<svg xmlns="http://www.w3.org/2000/svg" xmlns:xlink="http://www.w3.org/1999/xlink" width="1080" zoomAndPan="magnify" viewBox="0 0 810 809.999993" height="1080" preserveAspectRatio="xMidYMid meet" version="1.0"><defs><g/></defs><rect x="-81" width="972" fill="#ffffff" y="-80.999999" height="971.999992" fill-opacity="1"/><rect x="-81" width="972" fill="#ffffff" y="-80.999999" height="971.999992" fill-opacity="1"/><rect x="-81" width="972" fill="#e3e2dd" y="-80.999999" height="971.999992" fill-opacity="1"/><g fill="#3e4536" fill-opacity="1"><g transform="translate(-0.045373, 599.910545)"><g><path d="M 326.609375 -344.34375 C 323.535156 -347.414062 317.945312 -351.578125 309.84375 -356.828125 C 301.738281 -362.085938 291.878906 -367.125 280.265625 -371.9375 C 268.660156 -376.757812 256.066406 -381.03125 242.484375 -384.75 C 228.910156 -388.476562 215.113281 -390.34375 201.09375 -390.34375 C 176.550781 -390.34375 158.035156 -385.742188 145.546875 -376.546875 C 133.066406 -367.347656 126.828125 -354.425781 126.828125 -337.78125 C 126.828125 -325.070312 130.769531 -314.992188 138.65625 -307.546875 C 146.539062 -300.097656 158.367188 -293.742188 174.140625 -288.484375 C 189.910156 -283.234375 209.628906 -277.539062 233.296875 -271.40625 C 263.960938 -263.957031 290.578125 -254.863281 313.140625 -244.125 C 335.703125 -233.394531 353.003906 -219.378906 365.046875 -202.078125 C 377.097656 -184.773438 383.125 -161.882812 383.125 -133.40625 C 383.125 -108.425781 378.519531 -87.066406 369.3125 -69.328125 C 360.113281 -51.585938 347.410156 -37.238281 331.203125 -26.28125 C 314.992188 -15.332031 296.59375 -7.335938 276 -2.296875 C 255.414062 2.734375 233.515625 5.25 210.296875 5.25 C 187.066406 5.25 163.84375 2.84375 140.625 -1.96875 C 117.40625 -6.789062 95.0625 -13.691406 73.59375 -22.671875 C 52.132812 -31.648438 32.421875 -42.492188 14.453125 -55.203125 L 54.546875 -133.40625 C 58.484375 -129.457031 65.488281 -124.304688 75.5625 -117.953125 C 85.644531 -111.609375 97.914062 -105.257812 112.375 -98.90625 C 126.832031 -92.550781 142.601562 -87.179688 159.6875 -82.796875 C 176.769531 -78.421875 194.078125 -76.234375 211.609375 -76.234375 C 236.140625 -76.234375 254.753906 -80.394531 267.453125 -88.71875 C 280.160156 -97.039062 286.515625 -108.867188 286.515625 -124.203125 C 286.515625 -138.222656 281.476562 -149.175781 271.40625 -157.0625 C 261.332031 -164.945312 247.3125 -171.84375 229.34375 -177.75 C 211.382812 -183.664062 190.140625 -190.128906 165.609375 -197.140625 C 136.253906 -205.472656 111.71875 -214.785156 92 -225.078125 C 72.289062 -235.367188 57.613281 -248.398438 47.96875 -264.171875 C 38.332031 -279.941406 33.515625 -299.660156 33.515625 -323.328125 C 33.515625 -355.304688 41.070312 -382.140625 56.1875 -403.828125 C 71.300781 -425.515625 91.78125 -441.941406 117.625 -453.109375 C 143.476562 -464.273438 172.175781 -469.859375 203.71875 -469.859375 C 225.625 -469.859375 246.320312 -467.445312 265.8125 -462.625 C 285.3125 -457.8125 303.601562 -451.460938 320.6875 -443.578125 C 337.78125 -435.691406 353.113281 -427.148438 366.6875 -417.953125 Z M 326.609375 -344.34375 "/></g></g></g><g fill="#3e4536" fill-opacity="1"><g transform="translate(402.656414, 599.910545)"><g><path d="M 397.578125 -387.0625 L 248.40625 -387.0625 L 248.40625 0 L 158.375 0 L 158.375 -387.0625 L 9.203125 -387.0625 L 9.203125 -466.578125 L 397.578125 -466.578125 Z M 397.578125 -387.0625 "/></g></g></g></svg>